<?xml version="1.0" encoding="utf-8"?>
<!-- Svg Vector Icons : http://www.onlinewebfonts.com/icon -->
<!DOCTYPE svg PUBLIC "-//W3C//DTD SVG 1.1//EN" "http://www.w3.org/Graphics/SVG/1.1/DTD/svg11.dtd">
<svg version="1.1" xmlns="http://www.w3.org/2000/svg" xmlns:xlink="http://www.w3.org/1999/xlink" x="0px" y="0px" viewBox="0 0 1000 1000" enable-background="new 0 0 1000 1000" xml:space="preserve">
<metadata> Svg Vector Icons : http://www.onlinewebfonts.com/icon </metadata>
<g><g id="Zoom__x2B_"><g><path d="M500.3,255.2H377.7v122.6H255.2v122.6h122.6v122.6h122.6V500.3h122.6V377.8H500.3V255.2z M967.9,861.2l-177.1-177c48.5-69.6,77.2-154,77.2-245.2c0-236.9-192.1-429-429-429S10,202.1,10,439.1c0,237,192.1,429,429,429c91.2,0,175.6-28.7,245.2-77.2l177,177c29.5,29.5,77.2,29.5,106.7,0S997.3,890.7,967.9,861.2z M439,745.5c-169.2,0-306.5-137.2-306.5-306.5c0-169.2,137.2-306.5,306.5-306.5c169.2,0,306.5,137.2,306.5,306.5C745.5,608.3,608.3,745.5,439,745.5z"/></g></g><g></g><g></g><g></g><g></g><g></g><g></g><g></g><g></g><g></g><g></g><g></g><g></g><g></g><g></g><g></g></g>
</svg>